<?xml version="1.0" standalone="no"?>
<!DOCTYPE svg PUBLIC "-//W3C//DTD SVG 20010904//EN"
 "http://www.w3.org/TR/2001/REC-SVG-20010904/DTD/svg10.dtd">
<svg version="1.0" xmlns="http://www.w3.org/2000/svg"
 width="163.000000pt" height="163.000000pt" viewBox="0 0 163.000000 163.000000"
 preserveAspectRatio="xMidYMid meet">
<metadata>
Created by potrace 1.11, written by Peter Selinger 2001-2013
</metadata>
<g transform="translate(0.000000,163.000000) scale(0.100000,-0.100000)"
fill="#000000" stroke="none">
<path d="M699 1030 c-55 -9 -124 -55 -160 -105 -18 -25 -33 -44 -35 -42 -1 1
2 22 6 47 19 94 23 90 -88 90 l-98 0 -33 -187 c-18 -104 -47 -272 -65 -375
l-33 -188 98 0 c84 0 98 2 103 18 3 9 17 82 31 162 14 79 35 170 46 203 52
154 133 212 263 188 33 -6 60 -9 61 -8 1 1 16 41 33 89 28 78 29 87 14 94 -30
12 -106 20 -143 14z"/>
<path d="M1190 1029 c-84 -9 -171 -53 -230 -115 -60 -64 -86 -118 -99 -205
-29 -213 85 -392 284 -443 115 -31 244 -10 343 53 59 39 112 105 96 120 -5 5
-37 23 -71 41 l-62 32 -41 -35 c-118 -100 -312 -59 -350 74 l-9 29 284 0 284
0 6 33 c9 45 -11 150 -40 213 -64 142 -220 223 -395 203z m112 -169 c63 -18
128 -89 128 -140 0 -6 -66 -10 -191 -10 l-190 0 6 23 c32 102 138 157 247 127z"/>
</g>
</svg>
